<svg width="77" height="102" viewBox="0 0 77 102" fill="none" xmlns="http://www.w3.org/2000/svg">
<path d="M76.2405 102H0C0.330258 101.25 0.550417 100.799 0.550417 100.799C0.550417 100.799 6.65017 74.1132 9.75059 62.8234C9.75155 62.8138 9.75155 62.8041 9.75059 62.7944C10.1379 61.2607 10.6056 59.7485 11.1517 58.2639C11.187 58.1631 11.2326 58.0662 11.2878 57.9747C12.822 55.4797 14.7445 52.7896 12.0554 48.9486C9.3663 45.1076 10.318 28.2034 10.318 28.2034C10.318 28.2034 13.5836 13.7922 17.0403 6.11219C17.565 4.92206 18.3096 3.84165 19.235 2.9277C19.5357 2.63331 19.8568 2.36045 20.1958 2.11108C20.4522 1.91752 20.7195 1.73876 20.9964 1.57566L21.0514 1.54063C22.5035 0.717175 24.116 0.216409 25.7791 0.0724738C26.9606 -0.0505114 28.1532 -0.0168548 29.3259 0.172558C34.0268 0.809105 38.6208 2.07476 42.9845 3.9355C52.6511 8.18282 55.5773 13.8742 55.6354 13.9923L55.6584 14.0414C56.0467 14.9471 61.7202 28.1944 63.7648 34.3753C64.1815 35.3415 64.4189 36.3754 64.4653 37.4266C63.8858 38.9608 68.8827 58.1688 68.8827 58.1688C68.8827 58.1688 71.1986 67.433 73.5144 78.2915C73.6144 78.7428 73.7145 79.1922 73.8036 79.6525C74.2179 81.6241 74.6282 83.6327 75.0255 85.6393C75.7939 89.7738 76.1901 93.9688 76.2095 98.174C76.2555 99.4817 76.2658 100.757 76.2405 102Z" fill="#FF748E"/>
</svg>
