<svg width="60" height="88" viewBox="0 0 60 88" fill="none" xmlns="http://www.w3.org/2000/svg">
<path d="M25.4998 87.6631C25.1109 87.6635 24.7223 87.6431 24.3357 87.6017C18.8869 87.9226 13.519 86.1658 9.3143 82.6855C3.78026 78.0288 0.646978 70.5015 0 60.3058L1.1642 60.2334C1.78703 70.1001 4.77938 77.3567 10.0649 81.798C14.059 85.0626 19.1257 86.7227 24.2773 86.4546H24.4051C25.6733 86.6182 26.962 86.4939 28.1755 86.0908C29.3889 85.6877 30.496 85.0162 31.4142 84.1263C36.7087 79.196 38.2945 67.7255 38.0551 61.6511C37.7643 54.809 40.2354 35.2256 43.1775 31.3437C45.7533 27.9408 47.3512 12.6055 47.3683 12.4516L47.4115 12.0149L47.8422 11.9394C47.8684 11.9394 50.3829 11.4625 50.6978 9.58193C51.1003 7.13086 58.4112 0.727473 59.2403 0L60 0.873382C56.9814 3.48947 52.0954 8.23162 51.8498 9.77108C51.4947 11.9012 49.4078 12.7162 48.4882 12.9728C48.1974 15.5225 46.663 28.6633 44.1223 32.037C41.5203 35.4741 38.9274 54.3522 39.2182 61.5968C39.4687 67.8774 37.7894 79.7766 32.2091 84.9685C30.4123 86.7113 28.003 87.6789 25.4998 87.6631Z" fill="#353146"/>
</svg>
