<svg width="37" height="48" viewBox="0 0 37 48" fill="none" xmlns="http://www.w3.org/2000/svg">
<path d="M11.249 0V7.20223C11.2188 10.5912 10.0998 13.8808 8.05727 16.5853C6.42597 18.8035 5.96956 20.6615 6.70121 22.1066C7.02726 22.6566 7.48438 23.1173 8.03176 23.4477C8.57915 23.778 9.19979 23.9678 9.83834 24C12.5521 23.9263 15.2425 23.4771 17.8329 22.6652C20.0817 21.97 22.3997 21.5227 24.7457 21.3314C27.0824 21.0794 28.6267 20.9125 29.2177 19.5686C29.7702 18.3127 28.8473 17.0578 28.5002 16.5853C26.4575 13.8808 25.3386 10.5913 25.3084 7.20223V0H11.249ZM26.2374 18.251L26.2748 18.3026C25.7689 18.3916 25.0605 18.4685 24.4472 18.5343C21.9032 18.7439 19.3901 19.2336 16.9535 19.9946H16.9434C14.6653 20.6997 12.3036 21.0992 9.92031 21.1827C9.68755 21.1462 9.28883 21.0076 9.20686 20.8214C9.09959 20.5765 9.21395 19.7578 10.32 18.2479C12.7191 15.061 14.0297 11.1871 14.0583 7.19818V2.81228H22.4951V7.20223C22.5238 11.1911 23.8343 15.065 26.2334 18.252L26.2374 18.251Z" fill="white"/>
<path d="M25.3112 47.999V40.7978C25.3414 37.4088 26.4604 34.1192 28.503 31.4147C30.1343 29.1965 30.5907 27.3385 29.859 25.8934C29.533 25.3434 29.0759 24.8827 28.5285 24.5523C27.9811 24.222 27.3604 24.0322 26.7219 24C24.0082 24.0737 21.3178 24.5229 18.7273 25.3348C16.4785 26.03 14.1605 26.4773 11.8145 26.6686C9.47784 26.9206 7.93358 27.0875 7.34258 28.4314C6.79004 29.6873 7.71296 30.9421 8.06007 31.4147C10.103 34.1191 11.2223 37.4086 11.2529 40.7978V48L25.3112 47.999ZM10.3228 29.747L10.2854 29.6954C10.7914 29.6063 11.4998 29.5294 12.113 29.4636C14.657 29.2541 17.1702 28.7643 19.6067 28.0034H19.6168C21.8949 27.2982 24.2566 26.8987 26.6399 26.8153C26.8727 26.8517 27.2714 26.9904 27.3534 27.1766C27.4606 27.4215 27.3463 28.2402 26.2402 29.75C23.8411 32.937 22.5305 36.8109 22.502 40.7998V45.1887H14.0651V40.7978C14.0355 36.8081 12.7235 32.9337 10.3228 29.747Z" fill="white"/>
<path d="M3.43142 13.3348C1.20013 16.4432 0 20.1732 0 23.9995C0 27.8258 1.20013 31.5558 3.43142 34.6642L5.71444 33.0217C3.82725 30.3919 2.81222 27.2364 2.81222 23.9995C2.81222 20.7626 3.82725 17.6071 5.71444 14.9772L3.43142 13.3348Z" fill="white"/>
<path d="M33.1319 34.6642C35.3632 31.5558 36.5634 27.8258 36.5634 23.9995C36.5634 20.1732 35.3632 16.4432 33.1319 13.3348L30.8489 14.9772C32.7361 17.6071 33.7511 20.7626 33.7511 23.9995C33.7511 27.2364 32.7361 30.3919 30.8489 33.0217L33.1319 34.6642Z" fill="white"/>
</svg>
