<svg width="41" height="45" viewBox="0 0 41 45" fill="none" xmlns="http://www.w3.org/2000/svg">
<path d="M5.274 37.089C5.27638 39.1864 6.11062 41.1972 7.59371 42.6803C9.07679 44.1634 11.0876 44.9976 13.185 45H14.503V43.682C14.5054 40.4307 14.8293 37.1876 15.47 34C16.094 31.025 16.776 29.691 17.14 29.229C17.504 29.691 18.185 31.029 18.81 34C19.4504 37.1863 19.7743 40.428 19.777 43.678V45H21.095C23.1929 44.9984 25.2045 44.1645 26.6882 42.6814C28.172 41.1982 29.0066 39.1869 29.009 37.089C28.9352 32.0114 30.0301 26.9849 32.209 22.398C33.277 19.891 34.286 17.523 34.286 14.587C34.2858 14.0444 34.2487 13.5025 34.175 12.965C35.1235 11.1012 36.6417 9.58857 38.509 8.647L40.638 7.583L38.609 6.342C37.229 5.499 34.795 3.673 34.14 2.36L32.961 0L31.782 2.361C31.1304 3.36735 30.294 4.24109 29.317 4.936C27.3045 3.49567 24.8918 2.72116 22.417 2.721C20.5814 2.72228 18.7725 3.16071 17.14 4C15.5086 3.16052 13.7007 2.72142 11.866 2.719C8.71956 2.72271 5.70309 3.97447 3.4785 6.19963C1.25391 8.42478 0.00291119 11.4416 0 14.588C0 17.535 1.01 19.903 2.08 22.41C4.25773 26.9928 5.35065 32.0157 5.274 37.089ZM32.961 5.181C33.7371 6.00263 34.5877 6.7505 35.502 7.415C34.5387 8.13018 33.683 8.97983 32.961 9.938C32.239 8.97983 31.3833 8.13018 30.42 7.415C31.3342 6.7505 32.1849 6.00263 32.961 5.181ZM11.861 5.359C13.7425 5.39987 15.5729 5.97944 17.135 7.029C18.698 5.98117 20.5278 5.40144 22.409 5.358C24.0026 5.35855 25.5688 5.77199 26.955 6.558L25.278 7.582L27.409 8.647C29.0224 9.45811 30.3814 10.6977 31.337 12.23C31.5378 12.9995 31.6387 13.7917 31.637 14.587C31.637 16.987 30.813 18.917 29.771 21.364C27.4598 26.2801 26.2965 31.6572 26.369 37.089C26.3672 38.2616 25.9753 39.4002 25.2551 40.3256C24.5348 41.2509 23.5272 41.9104 22.391 42.2C22.302 39.0015 21.9102 35.8186 21.221 32.694C20.227 28.435 18.93 26.451 17.14 26.451C15.35 26.451 14.053 28.437 13.059 32.7C12.3702 35.8227 11.9784 39.0035 11.889 42.2C10.7524 41.9107 9.74434 41.2515 9.02374 40.3261C8.30313 39.4007 7.91095 38.2619 7.909 37.089C7.98333 31.6608 6.8206 26.287 4.509 21.375C3.465 18.928 2.641 16.996 2.641 14.587C2.64391 12.1402 3.61718 9.79447 5.34733 8.06433C7.07747 6.33418 9.42321 5.36091 11.87 5.358L11.861 5.359Z" fill="white"/>
</svg>
