<svg width="58" height="103" viewBox="0 0 58 103" fill="none" xmlns="http://www.w3.org/2000/svg">
<path opacity="0.1" d="M47.816 32.6699L51.1827 36.2311C51.1827 36.2311 53.8767 55.8566 55.2221 57.6923C56.5676 59.528 59.7468 66.8308 56.7621 72.3149C56.7621 72.3149 55.7996 75.2996 56.3761 76.5488C56.9526 77.798 52.049 84.0542 52.049 84.0542C52.049 84.0542 45.6024 89.825 44.2529 90.6922C42.9034 91.5595 35.7871 98.4853 33.3829 98.5805C30.9787 98.6758 30.1927 101.66 30.1927 101.66L16.6258 102.142C16.6258 102.142 9.13153 101.75 7.50234 102.808C7.50234 102.808 8.37254 91.3589 0 83.8526L10.6785 80.0037C10.6785 80.0037 14.7209 78.2632 15.9711 76.4456C16.7571 75.33 17.8727 74.4886 19.1613 74.0394C19.1613 74.0394 22.143 71.9219 22.2383 70.768C22.3335 69.614 25.8836 68.1984 25.8836 68.1984L23.8785 51.0442L24.9362 22.5689C24.9362 22.5689 28.3029 -1.29247 35.4232 0.0549941C42.5435 1.40246 47.816 32.6699 47.816 32.6699Z" fill="black"/>
</svg>
