<svg width="14" height="9" viewBox="0 0 14 9" fill="none" xmlns="http://www.w3.org/2000/svg">
<path d="M5.24253 8.87431C7.68613 8.45191 14 2.82026 14 2.82026C14 2.82026 6.16126 -0.380501 3.72083 0.0376773C3.14054 0.13794 2.58569 0.351528 2.08794 0.666227C1.59019 0.980927 1.15928 1.3906 0.819849 1.87183C0.480417 2.35305 0.239106 2.89643 0.109668 3.47092C-0.0197687 4.04541 -0.0347937 4.63977 0.0654695 5.22006C0.165733 5.80035 0.37932 6.35517 0.69402 6.85292C1.00872 7.35067 1.41836 7.78161 1.89959 8.12104C2.38081 8.46048 2.92419 8.70175 3.49868 8.83119C4.07317 8.96063 4.66753 8.97567 5.24782 8.87541L5.24253 8.87431Z" fill="#6C63FF"/>
</svg>
