<svg width="316" height="54" viewBox="0 0 316 54" fill="none" xmlns="http://www.w3.org/2000/svg">
<path d="M289 0H27C12.0883 0 0 12.0883 0 27C0 41.9117 12.0883 54 27 54H289C303.912 54 316 41.9117 316 27C316 12.0883 303.912 0 289 0Z" fill="white"/>
<path d="M289 0.25H27C12.2264 0.25 0.25 12.2264 0.25 27C0.25 41.7736 12.2264 53.75 27 53.75H289C303.774 53.75 315.75 41.7736 315.75 27C315.75 12.2264 303.774 0.25 289 0.25Z" stroke="#01D4AA" stroke-width="0.5"/>
<path d="M285.567 26.9478H284.714L284.414 26.6548C285.603 25.2696 286.209 23.4777 286.105 21.6553C286 19.8329 285.194 18.1217 283.855 16.881C282.516 15.6403 280.749 14.9665 278.924 15.0013C277.099 15.036 275.358 15.7765 274.067 17.0672C272.776 18.358 272.036 20.0986 272.001 21.9237C271.967 23.7488 272.64 25.5163 273.881 26.8553C275.122 28.1942 276.833 29.0004 278.655 29.1045C280.478 29.2087 282.27 28.6027 283.655 27.4138L283.948 27.7138V28.5708L289.369 33.9808L290.984 32.3658L285.567 26.9478ZM279.062 26.9478C278.097 26.9478 277.154 26.6617 276.351 26.1256C275.549 25.5894 274.923 24.8274 274.554 23.9359C274.185 23.0444 274.088 22.0634 274.277 21.117C274.465 20.1705 274.929 19.3012 275.612 18.6188C276.294 17.9365 277.164 17.4718 278.11 17.2836C279.056 17.0953 280.037 17.1919 280.929 17.5612C281.82 17.9305 282.582 18.5558 283.119 19.3582C283.655 20.1605 283.941 21.1038 283.941 22.0688C283.942 22.7099 283.816 23.3448 283.571 23.9372C283.326 24.5297 282.967 25.0679 282.513 25.5212C282.06 25.9744 281.522 26.3338 280.929 26.5786C280.337 26.8234 279.702 26.9489 279.061 26.9478H279.062Z" fill="#00D4AA"/>
</svg>
