<svg width="79" height="104" viewBox="0 0 79 104" fill="none" xmlns="http://www.w3.org/2000/svg">
<path opacity="0.1" d="M78.2878 0.922708C78.2411 0.767283 78.1509 0.628467 78.0278 0.522684C77.5278 0.0686666 76.4598 -0.0903385 74.8457 0.0486668L74.9127 0.812704C77.0647 0.627697 77.4898 1.0557 77.5448 1.1277V1.19971L77.6118 1.29972C77.8801 1.66046 78.0701 2.07327 78.1697 2.51171C78.2692 2.95016 78.2761 3.40456 78.1898 3.84581C77.7188 6.2039 74.8227 8.08098 74.7897 8.10098L74.7207 8.14097L74.6777 8.20698C73.4276 10.0611 66.3614 15.2942 64.5123 16.6483L64.3503 16.4633C63.5233 17.1803 56.25 23.5476 55.8569 25.9867C55.6019 27.5167 53.8779 28.1097 53.2569 28.2748C51.7222 27.1425 50.3975 25.7505 49.3427 24.1616C48.2987 22.3615 52.5018 18.8614 52.8718 17.4903L52.2928 16.8973C52.2318 17.1173 46.8346 22.1625 48.3357 24.7396C49.4519 26.4503 50.8645 27.9482 52.5068 29.1628C52.2608 31.3959 50.7308 44.5094 48.3787 47.6155C45.4566 51.4776 43.0005 70.9404 43.2725 77.7356C43.5125 83.7729 41.9364 95.1763 36.6722 100.074C35.7607 100.959 34.661 101.626 33.4553 102.027C32.2496 102.428 30.969 102.551 29.709 102.388H29.5819C24.4598 102.663 19.42 101.012 15.4534 97.7594C10.2032 93.3422 7.22908 86.133 6.61005 76.3266H6.48309L6.43109 73.4715C7.85471 73.2485 9.13643 72.4824 10.007 71.3341C10.8776 70.1859 11.2693 68.7449 11.0997 67.3139C10.9301 65.883 10.2125 64.5734 9.09764 63.6605C7.98276 62.7475 6.55741 62.3023 5.1211 62.4182C3.6848 62.5342 2.34932 63.2023 1.39531 64.2822C0.441307 65.3622 -0.0569486 66.7699 0.00518476 68.2095C0.0673181 69.6492 0.685013 71.0087 1.72852 72.0024C2.77202 72.9961 4.16009 73.5467 5.60104 73.5385H5.66501L5.71701 76.3766L5.462 76.3936C6.09802 86.518 9.22216 94.0073 14.7194 98.6334C18.8969 102.095 24.2331 103.842 29.649 103.52C30.0332 103.562 30.4194 103.583 30.806 103.584C33.2884 103.596 35.677 102.636 37.4593 100.908C43.0045 95.7443 44.6916 83.9209 44.4275 77.6787C44.1385 70.4784 46.7156 51.7156 49.3017 48.2995C51.8358 44.9464 53.3718 31.8829 53.6408 29.3518C54.5579 29.0948 56.632 28.2817 56.985 26.1697C57.24 24.6426 62.0962 19.9354 65.0853 17.3293L64.9953 17.2293C68.148 14.9691 71.1819 12.5475 74.0847 9.97405C74.8537 9.23602 75.6177 8.49898 76.4158 7.79596C77.6242 6.82016 78.4981 5.49177 78.9159 3.99582C79.0266 3.46785 79.028 2.92277 78.92 2.39423C78.812 1.86569 78.5968 1.36489 78.2878 0.922708Z" fill="black"/>
</svg>
