<svg width="48" height="48" viewBox="0 0 48 48" fill="none" xmlns="http://www.w3.org/2000/svg">
<path d="M47.9997 24.1078C47.9748 29.6556 46.0286 35.0234 42.4923 39.2981C38.956 43.5728 34.048 46.4903 28.6031 47.5544C23.1583 48.6184 17.513 47.7633 12.6276 45.1345C7.74214 42.5057 3.91836 38.2655 1.80665 33.1353C-0.305055 28.0051 -0.574277 22.3017 1.0449 16.9954C2.66407 11.6892 6.07162 7.1077 10.6878 4.03045C15.3039 0.953203 20.8436 -0.429772 26.3644 0.116793C31.8853 0.663357 37.0463 3.1057 40.9694 7.02835C43.2061 9.2736 44.9782 11.9377 46.1845 14.8683C47.3908 17.799 48.0077 20.9387 47.9997 24.1078Z" fill="#FFC1C7"/>
</svg>
