<svg width="33" height="25" viewBox="0 0 33 25" fill="none" xmlns="http://www.w3.org/2000/svg">
<path d="M29.2635 8.70489L31.714 7.72431C31.714 7.72431 26.5903 2.08291 19.4567 2.57422L21.4614 0.366892C21.4614 0.366892 16.5606 -1.59529 12.1044 3.55582C9.44314 6.39831 7.17567 9.58532 5.36283 13.0314H2.73814L3.83319 15.4434L0 17.8553L3.93452 17.4217C3.70013 18.7425 3.66424 20.0908 3.82812 21.4221C3.99889 22.7542 4.6807 23.9677 5.72953 24.8065C5.72953 24.8065 8.76853 18.5158 8.76853 17.5352V19.9877C8.76853 19.9877 11.219 17.7804 11.219 16.3085L12.5551 18.0255L13.2237 15.3279L21.4665 18.0255L20.1303 15.8182L25.2541 16.5536L23.2483 13.859C23.2483 13.859 29.0407 17.0479 29.2635 19.7456C29.5127 21.6159 30.1675 23.4092 31.1821 25C31.1821 25 35.7234 12.3841 29.2635 8.70489Z" fill="#2F2E41"/>
</svg>
