<svg width="62" height="10" viewBox="0 0 62 10" fill="none" xmlns="http://www.w3.org/2000/svg">
<path d="M5 7.635L8.09 9.5L7.27 5.985L10 3.62L6.405 3.32L5 0L3.6 3.315L0 3.62L2.73 5.985L1.91 9.5L5 7.635Z" fill="#00D4AA"/>
<path d="M18 7.635L21.09 9.5L20.27 5.985L23 3.62L19.405 3.32L18 0L16.6 3.315L13 3.62L15.73 5.985L14.91 9.5L18 7.635Z" fill="#00D4AA"/>
<path d="M31 7.635L34.09 9.5L33.27 5.985L36 3.62L32.405 3.32L31 0L29.6 3.315L26 3.62L28.73 5.985L27.91 9.5L31 7.635Z" fill="#00D4AA"/>
<path d="M44 7.635L47.09 9.5L46.27 5.985L49 3.62L45.405 3.32L44 0L42.6 3.315L39 3.62L41.73 5.985L40.91 9.5L44 7.635Z" fill="#00D4AA"/>
<path d="M57 7.635L60.09 9.5L59.27 5.985L62 3.62L58.405 3.32L57 0L55.6 3.315L52 3.62L54.73 5.985L53.91 9.5L57 7.635Z" fill="#A7A7A7"/>
</svg>
