<svg width="21" height="19" viewBox="0 0 21 19" fill="none" xmlns="http://www.w3.org/2000/svg">
<path d="M10.5 0C8.4233 0 6.39323 0.557165 4.66652 1.60104C2.9398 2.64491 1.59399 4.12861 0.799269 5.86451C0.00454948 7.6004 -0.203386 9.51054 0.201759 11.3534C0.606904 13.1962 1.60693 14.8889 3.07538 16.2175C4.54383 17.5461 6.41476 18.4509 8.45156 18.8175C10.4884 19.184 12.5996 18.9959 14.5182 18.2769C16.4368 17.5578 18.0767 16.3402 19.2304 14.7779C20.3842 13.2156 21 11.3789 21 9.5C21 6.98044 19.8938 4.56408 17.9246 2.78248C15.9555 1.00089 13.2848 0 10.5 0ZM10.5 17.1C8.83864 17.1 7.21459 16.6543 5.83321 15.8192C4.45184 14.9841 3.37519 13.7971 2.73942 12.4084C2.10364 11.0197 1.93729 9.49157 2.26141 8.01731C2.58552 6.54306 3.38555 5.18887 4.56031 4.12599C5.73507 3.06311 7.2318 2.33928 8.86125 2.04603C10.4907 1.75278 12.1796 1.90329 13.7145 2.47852C15.2494 3.05374 16.5613 4.02785 17.4843 5.27766C18.4073 6.52748 18.9 7.99686 18.9 9.5C18.9 11.5156 18.015 13.4487 16.4397 14.874C14.8644 16.2993 12.7278 17.1 10.5 17.1ZM11.025 4.75H9.45V10.45L14.9625 13.4425L15.75 12.274L11.025 9.7375V4.75Z" fill="#00D4AA"/>
</svg>
