<svg width="51" height="74" viewBox="0 0 51 74" fill="none" xmlns="http://www.w3.org/2000/svg">
<path d="M34.8906 73.967C33.4099 73.3212 30.7062 73.7085 26.0742 72.2942C21.4421 70.88 20.5419 64.5078 20.5419 64.5078V64.4877C20.4896 64.3398 20.056 63.3933 17.14 60.0709C13.9212 56.4015 6.95662 37.8674 6.95662 37.8674C6.95662 37.8674 0.782613 31.2387 0.974733 28.7955C1.16685 26.3522 -0.119673 19.8483 0.00907792 12.5799C0.137829 5.31145 13.9001 0.490345 13.9001 0.490345C40.4158 -4.20907 34.1714 26.3603 33.4643 28.6758C32.7571 30.9913 36.4265 37.2477 36.4265 37.2477C35.9085 39.9716 38.5509 44.1883 38.5509 44.1883C38.5509 44.1883 39.1907 47.918 39.3245 49.3353C39.3292 49.4009 39.3427 49.4655 39.3647 49.5274C39.7892 50.8632 43.2524 52.0732 44.6636 52.8095C46.1422 53.581 50.908 60.3395 50.908 60.3395C51.9431 65.2954 36.3712 74.6248 34.8906 73.967Z" fill="#FF748E"/>
</svg>
