<svg width="56" height="25" viewBox="0 0 56 25" fill="none" xmlns="http://www.w3.org/2000/svg">
<g opacity="0.1">
<path opacity="0.1" d="M54.5459 9.07861C55.0226 7.31578 55.5988 5.5409 56 3.75494C55.5203 5.54995 54.9411 7.31578 54.5459 9.07861Z" fill="black"/>
<path opacity="0.1" d="M49.6798 22.9308C49.0976 21.6537 49.4093 20.1765 49.4213 18.7737C49.4334 17.3708 48.9185 15.7307 47.565 15.3385C44.8659 14.5853 43.0036 19.6204 40.3508 18.7103C38.3144 18.0154 38.8524 14.9292 37.6779 13.1453C36.7497 11.7314 34.8914 11.3352 33.4483 10.4513C30.3712 8.56375 30.4637 5.5439 29.0387 2.68698C27.5404 -0.308724 24.3848 0.575216 21.6385 2.34408C19.5528 3.68757 17.7578 5.48861 15.5294 6.56159C13.5678 7.43656 11.4425 7.88456 9.29463 7.87591C6.69111 7.93725 3.85832 7.47367 2.06935 5.58414C1.40614 4.82998 0.919528 3.93738 0.644845 2.97138C0.370162 2.00538 0.314346 0.990283 0.48152 0C0.432245 0.136762 0.388012 0.27353 0.344771 0.410292C-0.0274915 1.55117 -0.0997331 2.76868 0.135045 3.94556C0.369823 5.12245 0.903718 6.21904 1.68525 7.12974C3.47423 9.02028 6.31104 9.47985 8.91053 9.42153C11.0584 9.42978 13.1835 8.98178 15.1452 8.10719C17.3787 7.03119 19.1737 5.23317 21.2543 3.88968C24.0006 2.12082 27.1592 1.2369 28.6546 4.2326C30.0795 7.08952 29.99 10.1084 33.0642 11.9969C34.5183 12.8698 36.3656 13.277 37.2967 14.6909C38.4602 16.4799 37.9454 19.5601 39.9697 20.2559C42.6194 21.161 44.4818 16.1329 47.1809 16.8841C48.5304 17.2622 49.0513 18.9205 49.0362 20.3193C49.0211 21.7181 48.7194 23.1993 49.2956 24.4765C51.5321 24.3759 54.2985 23.8942 54.9471 21.7422C55.0363 21.4332 55.0774 21.1124 55.0689 20.7909C54.1246 22.422 51.692 22.8403 49.6798 22.9308Z" fill="black"/>
</g>
</svg>
