<svg width="16" height="16" viewBox="0 0 16 16" fill="none" xmlns="http://www.w3.org/2000/svg">
<path d="M11.4406 10.0706H10.7183L10.4605 9.82131C11.4624 8.65411 11.9731 7.14413 11.8854 5.60841C11.7977 4.07268 11.1184 2.63067 9.99011 1.58512C8.86185 0.539577 7.37238 -0.0281731 5.83443 0.00107657C4.29648 0.0303263 2.82968 0.6543 1.74199 1.74199C0.6543 2.82968 0.0303263 4.29648 0.00107657 5.83443C-0.0281731 7.37238 0.539577 8.86185 1.58512 9.99011C2.63067 11.1184 4.07268 11.7977 5.60841 11.8854C7.14413 11.9731 8.65411 11.4624 9.82131 10.4605L10.0685 10.7162V11.4384L14.6364 15.9979L16 14.6386L11.4406 10.0706ZM5.95856 10.0706C5.14549 10.0706 4.35068 9.82948 3.67464 9.37777C2.99859 8.92605 2.47168 8.284 2.16053 7.53282C1.84938 6.78164 1.76797 5.95507 1.92659 5.15762C2.08522 4.36017 2.47675 3.62767 3.05167 3.05274C3.6266 2.47781 4.3591 2.08628 5.15655 1.92766C5.954 1.76904 6.78058 1.85045 7.53176 2.1616C8.28294 2.47274 8.92498 2.99966 9.3767 3.6757C9.82842 4.35174 10.0695 5.14656 10.0695 5.95963C10.0702 6.49959 9.9644 7.03439 9.75812 7.53341C9.55184 8.03242 9.24915 8.48584 8.86739 8.8677C8.48563 9.24956 8.03228 9.55237 7.53332 9.75878C7.03437 9.96519 6.49959 10.0711 5.95963 10.0706H5.95856Z" fill="white"/>
</svg>
