<svg width="10" height="10" viewBox="0 0 10 10" fill="none" xmlns="http://www.w3.org/2000/svg">
<path d="M9 0H1C0.735651 0.00132176 0.48258 0.107262 0.296123 0.294655C0.109667 0.482048 0.00499681 0.735648 0.00500011 1L0 10L2 8H9C9.26522 8 9.51957 7.89464 9.70711 7.70711C9.89464 7.51957 10 7.26522 10 7V1C10 0.734784 9.89464 0.48043 9.70711 0.292893C9.51957 0.105357 9.26522 0 9 0ZM2 6V4.765L5.44 1.325C5.4631 1.30132 5.49071 1.28251 5.52119 1.26966C5.55168 1.25682 5.58442 1.2502 5.6175 1.2502C5.65058 1.2502 5.68333 1.25682 5.71381 1.26966C5.74429 1.28251 5.7719 1.30132 5.795 1.325L6.68 2.21C6.70368 2.2331 6.72249 2.26071 6.73534 2.29119C6.74818 2.32167 6.7548 2.35442 6.7548 2.3875C6.7548 2.42058 6.74818 2.45333 6.73534 2.48381C6.72249 2.51429 6.70368 2.5419 6.68 2.565L3.235 6H2ZM8 6H4.25L5.25 5H8V6Z" fill="#00D4AA"/>
</svg>
