<svg width="50" height="38" viewBox="0 0 50 38" fill="none" xmlns="http://www.w3.org/2000/svg">
<path d="M33.7738 2.92792C32.6093 2.92978 31.493 3.39319 30.6696 4.21661C29.8462 5.04004 29.3828 6.15631 29.3809 7.32081V7.87979L26.453 6.41583V0H23.5251V6.41583L20.5951 7.88079V7.32081C20.5933 6.15596 20.1296 5.03939 19.3057 4.21591C18.4819 3.39243 17.3651 2.92925 16.2002 2.92792C10.5664 2.92792 6.54549 6.97182 4.00956 11.9827C1.33743 17.7234 -0.0315786 23.9842 0.000665309 30.3162C-0.0269297 32.5131 0.804844 34.6338 2.3186 36.2261C2.84525 36.782 3.47885 37.2257 4.18135 37.5306C4.88385 37.8354 5.64072 37.9951 6.4065 38C8.69444 38 12.1993 36.4121 15.1283 34.0491C17.1702 32.4022 20.5941 29.0222 20.5941 24.8913V11.1537L24.988 8.95377L29.3809 11.1537V24.8903C29.3809 29.0212 32.8058 32.4012 34.8468 34.0481C37.7757 36.411 41.2806 37.999 43.5685 37.999C44.3343 37.9941 45.0912 37.8344 45.7937 37.5296C46.4962 37.2247 47.1298 36.781 47.6564 36.2251C49.1701 34.6327 50.0018 32.512 49.9744 30.3152C50.0061 23.9837 48.6367 17.7237 45.9645 11.9837C43.4295 6.97382 39.4086 2.92892 33.7738 2.92892V2.92792ZM17.6682 24.8903C17.6682 27.0183 16.0682 29.5252 13.2903 31.7692C10.6044 33.9361 7.79046 35.0691 6.4065 35.0691C6.02816 35.0626 5.65512 34.9791 5.3102 34.8235C4.96528 34.6678 4.65575 34.4435 4.40055 34.1641C3.44601 33.1212 2.92124 31.7559 2.93159 30.3422C2.89491 24.4605 4.15832 18.6433 6.63149 13.3067C8.34345 9.90674 11.4004 5.85384 16.2002 5.85384C16.5886 5.85411 16.961 6.00837 17.2358 6.2828C17.5106 6.55723 17.6654 6.92944 17.6662 7.31781L17.6682 24.8903ZM45.5785 34.1631C45.3231 34.4432 45.0132 34.6682 44.6677 34.8241C44.3222 34.9801 43.9485 35.0638 43.5695 35.0701C42.1826 35.0701 39.3696 33.9361 36.6857 31.7702C33.9048 29.5262 32.3088 27.0193 32.3088 24.8913V7.32081C32.3087 7.1283 32.3465 6.93764 32.42 6.75973C32.4936 6.58183 32.6014 6.42014 32.7375 6.28392C32.8735 6.1477 33.035 6.03961 33.2129 5.96582C33.3907 5.89202 33.5813 5.85397 33.7738 5.85384C38.5737 5.85384 41.6326 9.90474 43.3515 13.3027C45.8247 18.6393 47.0881 24.4565 47.0514 30.3382C47.0618 31.7519 46.537 33.1173 45.5825 34.1601L45.5785 34.1631Z" fill="white"/>
</svg>
