<svg width="51" height="74" viewBox="0 0 51 74" fill="none" xmlns="http://www.w3.org/2000/svg">
<path opacity="0.1" d="M34.8863 73.9677C33.4029 73.3251 30.7027 73.7082 26.0687 72.2983C21.4346 70.8883 20.5375 64.5105 20.5375 64.5105V64.4903C20.4822 64.3445 20.0518 63.3962 17.1364 60.0745C13.9183 56.4059 6.9551 37.8786 6.9551 37.8786C6.9551 37.8786 0.78237 31.2493 0.977468 28.8056C1.17257 26.3618 -0.119688 19.8602 0.00903671 12.5873C0.137761 5.31438 13.9122 0.490243 13.9122 0.490243C40.4224 -4.20819 34.1793 26.3548 33.4723 28.6698C32.7653 30.9848 36.434 37.24 36.434 37.24C35.9161 39.9634 38.5579 44.179 38.5579 44.179C38.5579 44.179 39.1975 47.908 39.3293 49.325C39.3364 49.3905 39.3509 49.4549 39.3725 49.5171C39.7969 50.8526 43.2594 52.0624 44.6673 52.7986C46.1476 53.5719 50.9104 60.3269 50.9104 60.3269C51.9332 65.2868 36.3636 74.6183 34.8863 73.9677Z" fill="black"/>
</svg>
