<svg width="32" height="32" viewBox="0 0 32 32" fill="none" xmlns="http://www.w3.org/2000/svg">
<g filter="url(#filter0_d_1_149)">
<path d="M9 3H23C23.7956 3 24.5587 3.31607 25.1213 3.87868C25.6839 4.44129 26 5.20435 26 6V20C26 20.7956 25.6839 21.5587 25.1213 22.1213C24.5587 22.6839 23.7956 23 23 23H9C8.20435 23 7.44129 22.6839 6.87868 22.1213C6.31607 21.5587 6 20.7956 6 20V6C6 5.20435 6.31607 4.44129 6.87868 3.87868C7.44129 3.31607 8.20435 3 9 3V3Z" fill="white"/>
</g>
<defs>
<filter id="filter0_d_1_149" x="0" y="0" width="32" height="32" filterUnits="userSpaceOnUse" color-interpolation-filters="sRGB">
<feFlood flood-opacity="0" result="BackgroundImageFix"/>
<feColorMatrix in="SourceAlpha" type="matrix" values="0 0 0 0 0 0 0 0 0 0 0 0 0 0 0 0 0 0 127 0" result="hardAlpha"/>
<feOffset dy="3"/>
<feGaussianBlur stdDeviation="3"/>
<feColorMatrix type="matrix" values="0 0 0 0 0 0 0 0 0 0 0 0 0 0 0 0 0 0 0.161 0"/>
<feBlend mode="normal" in2="BackgroundImageFix" result="effect1_dropShadow_1_149"/>
<feBlend mode="normal" in="SourceGraphic" in2="effect1_dropShadow_1_149" result="shape"/>
</filter>
</defs>
</svg>
