<svg width="315" height="211" viewBox="0 0 315 211" fill="none" xmlns="http://www.w3.org/2000/svg">
<path opacity="0.1" d="M183.021 34.7606C162.827 34.0588 143.579 27.5418 125.226 20.4073C106.873 13.2728 88.683 5.36824 68.9618 1.59343C56.2819 -0.839887 41.7812 -1.18178 31.5647 5.61588C21.7331 12.1559 18.5569 23.4462 16.8494 33.9214C15.5651 41.8039 14.8192 50.0984 18.3313 57.4826C20.7766 62.6039 25.1149 66.9071 28.1167 71.8199C38.5578 88.8932 31.1767 109.949 19.8603 126.634C14.5525 134.465 8.39549 141.915 4.30085 150.242C0.206212 158.568 -1.69072 168.107 1.8946 176.599C5.44783 185.01 13.9098 191.337 23.0806 195.784C41.706 204.807 63.652 207.388 85.0526 208.867C132.425 212.106 180.051 210.703 227.549 209.299C245.126 208.777 262.783 208.252 280.074 205.529C289.677 204.018 299.593 201.619 306.565 195.84C315.414 188.497 317.609 176.067 311.678 166.859C301.73 151.419 274.228 147.581 267.273 131.01C263.448 121.886 267.373 111.727 272.94 103.267C284.871 85.1194 304.868 69.198 305.925 48.4522C306.65 34.2031 297.036 19.9371 282.17 13.1946C266.59 6.12119 244.983 7.01452 233.49 18.7089C221.649 30.7442 200.849 35.3782 183.021 34.7606Z" fill="#6C63FF"/>
</svg>
