<svg width="63" height="125" viewBox="0 0 63 125" fill="none" xmlns="http://www.w3.org/2000/svg">
<g opacity="0.1">
<path opacity="0.1" d="M13.923 32.2036C13.9371 32.2267 13.9581 32.2467 13.9752 32.2708C14.0624 32.1605 14.1517 32.0502 14.245 31.9459C14.1461 32.0418 14.0383 32.1281 13.923 32.2036Z" fill="black"/>
<path opacity="0.1" d="M20.6504 45.5028C20.9114 43.9072 21.5228 42.3892 22.4405 41.0581C21.913 40.8575 21.3845 40.6489 20.862 40.4343C20.9117 40.1087 20.9368 39.7798 20.9372 39.4504C20.0067 40.8037 19.3831 42.344 19.1099 43.9634C18.9615 45.901 19.9123 47.7343 20.7637 49.4793C24.0241 56.2096 26.0348 64.0833 23.5838 71.1496C22.5187 74.2184 20.6825 76.9513 19.3396 79.9198C16.9924 85.1753 16.3022 91.0213 17.3609 96.679C18.0248 100.198 19.3667 103.676 19.0407 107.241C18.4601 113.377 13.1719 117.943 7.86863 121.081C5.7014 122.364 3.16911 123.538 0.748153 123.454C0.524028 123.815 0.273985 124.159 0 124.484C3.04275 125.827 6.54483 124.315 9.40806 122.622C14.7143 119.489 20.0146 114.933 20.5942 108.782C20.9252 105.217 19.5793 101.739 18.9114 98.2194C17.8522 92.5623 18.5403 86.7168 20.8841 81.4602C22.2189 78.4957 24.0752 75.7598 25.1282 72.69C27.5793 65.6227 25.5665 57.747 22.3081 51.0197C21.4657 49.2656 20.505 47.4444 20.6504 45.5028Z" fill="black"/>
<path opacity="0.1" d="M60.3676 0.812333C60.0822 0.519567 59.7759 0.248066 59.4509 0C62.967 4.56011 57.8905 8.43626 57.6377 13.3444C57.4111 17.7831 57.7831 27.7097 52.866 29.9321C50.435 31.0352 47.8265 28.6283 45.1609 28.5661C44.1985 28.6136 43.26 28.8819 42.4179 29.3503C41.5759 29.8186 40.8529 30.4744 40.3049 31.2669C39.2235 32.8559 38.3034 34.5488 37.558 36.3204C36.7827 37.8843 35.8906 39.3875 34.8893 40.8174C34.3513 41.7101 33.6023 42.4571 32.7081 42.9926C31.1125 43.825 29.1719 43.3577 27.4509 42.8181C25.7795 42.2919 24.122 41.7116 22.4786 41.0771C22.4753 41.3794 22.4502 41.6811 22.4034 41.9797C24.5676 42.8616 26.7636 43.6525 28.9913 44.3525C30.7083 44.8921 32.6499 45.3554 34.2485 44.527C35.139 43.9855 35.887 43.2386 36.4298 42.3488C37.4317 40.921 38.3228 39.4187 39.0954 37.8548C39.8418 36.0822 40.763 34.3883 41.8453 32.7983C42.3934 32.0068 43.116 31.3519 43.9575 30.8841C44.799 30.4163 45.7367 30.1482 46.6983 30.1006C49.3669 30.1587 51.9754 32.5666 54.4064 31.4665C59.3206 29.2441 58.9495 19.3165 59.1781 14.8788C59.4459 9.71794 65.0621 5.69738 60.3676 0.812333Z" fill="black"/>
</g>
</svg>
