<svg width="57" height="43" viewBox="0 0 57 43" fill="none" xmlns="http://www.w3.org/2000/svg">
<path d="M21.2328 22.427C19.1496 23.769 17.3567 25.5649 15.1308 26.6397C13.1715 27.5136 11.0488 27.9611 8.90335 27.9525C6.2918 28.0107 3.47334 27.5507 1.68644 25.6634C0.904007 24.7547 0.369477 23.6594 0.134724 22.4835C-0.10003 21.3077 -0.0270922 20.0911 0.346475 18.9517C1.13187 16.6722 2.65084 14.7174 4.66562 13.3931C6.62126 12.019 8.8903 11.0688 10.19 9.10214C10.7788 8.00707 11.3082 6.88114 11.776 5.72923C13.5981 2.18757 17.6942 0.270096 21.6547 0.0310387C25.6152 -0.208018 29.5406 0.972198 33.3112 2.25085C37.0819 3.5295 40.8827 4.93572 44.8623 5.19989C46.6351 5.31037 48.4782 5.19988 50.1215 5.87085C52.3313 6.76882 53.7827 8.91631 54.7701 11.101C55.9303 13.5504 56.5053 16.2359 56.4495 18.9456C56.2055 24.69 52.4106 30.327 54.079 35.8293C54.521 37.2968 55.3487 38.8014 54.9067 40.2689C54.2619 42.4104 51.4986 42.8985 49.2637 43C48.6821 41.7244 48.9935 40.2488 49.0046 38.8476C49.0156 37.4464 48.5024 35.7941 47.1514 35.4165C44.4555 34.6641 42.5953 39.6904 39.9455 38.7844C37.9266 38.0903 38.4489 35.0077 37.2757 33.2258C36.3486 31.8135 34.4894 31.4178 33.048 30.5349C29.9765 28.6495 30.0699 25.6332 28.6436 22.7796C27.1349 19.7773 23.9769 20.6602 21.2328 22.427Z" fill="#99607E"/>
</svg>
