<svg width="19" height="19" viewBox="0 0 19 19" fill="none" xmlns="http://www.w3.org/2000/svg">
<path d="M13.5783 11.958H12.7246L12.4243 11.6647C13.6142 10.2784 14.2207 8.48494 14.1165 6.66096C14.0122 4.83698 13.2054 3.12433 11.8653 1.88256C10.5253 0.640802 8.7562 -0.0334818 6.92958 0.00128029C5.10296 0.0360423 3.36085 0.777146 2.069 2.069C0.777146 3.36085 0.0360423 5.10296 0.00128029 6.92958C-0.0334818 8.7562 0.640802 10.5253 1.88256 11.8653C3.12433 13.2054 4.83698 14.0122 6.66096 14.1165C8.48494 14.2207 10.2784 13.6142 11.6647 12.4243L11.958 12.7246V13.5823L17.3836 18.9969L18.9999 17.3806L13.5783 11.958ZM7.06781 11.958C6.10201 11.958 5.15791 11.6716 4.35488 11.135C3.55185 10.5984 2.92596 9.83579 2.55637 8.94351C2.18678 8.05123 2.09008 7.06939 2.27849 6.12216C2.46691 5.17492 2.93198 4.30483 3.6149 3.62191C4.29782 2.93899 5.16791 2.47392 6.11515 2.2855C7.06239 2.09708 8.04423 2.19378 8.9365 2.56338C9.82878 2.93297 10.5914 3.55885 11.128 4.36188C11.6646 5.16491 11.9509 6.10902 11.9509 7.07481C11.9519 7.71642 11.8262 8.3519 11.581 8.94483C11.3359 9.53776 10.9761 10.0765 10.5224 10.5301C10.0687 10.9838 9.52988 11.3434 8.9369 11.5884C8.34392 11.8334 7.70841 11.959 7.0668 11.958H7.06781Z" fill="#01D4AA"/>
</svg>
