<svg width="119" height="166" viewBox="0 0 119 166" fill="none" xmlns="http://www.w3.org/2000/svg">
<path d="M93.6637 89.3726L92.9995 90.2084C92.9995 90.2084 97.8155 114.376 96.4821 119.864C96.2557 120.852 96.1263 121.861 96.0958 122.874V122.917C96.1011 127.235 96.5877 131.539 97.5466 135.749C97.5466 135.749 98.8931 157.11 98.1275 165.895H7.97551C7.44776 152.904 6.87886 136.074 7.39558 134.208C8.26648 131.129 10.0043 119.96 10.0043 119.96L10.1959 114.667C10.1959 114.667 10.1959 109.55 10.3524 103.85C10.4187 101.287 10.518 98.5963 10.6605 96.2113C10.7321 93.9359 10.9963 91.6707 11.4501 89.4398C11.6663 88.4982 11.7906 87.5379 11.8213 86.5723C11.8183 86.48 11.8241 86.3876 11.8384 86.2964C11.8384 86.0064 11.8675 85.6943 11.8795 85.3703V85.0803C11.9347 83.2111 11.9146 80.9937 11.8534 78.695V78.3148C11.8042 76.591 11.7321 74.8322 11.6528 73.1606C11.3999 67.9362 11.0718 63.5195 11.0718 63.5195L0 26.8335L2.98393 19.485L11.2675 14.4101L26.5775 5.16637C34.0453 -0.972061 38.9616 -0.234613 40.8369 0.438627C41.0189 0.5008 41.1971 0.573508 41.3706 0.656363C41.4288 0.685459 41.471 0.708539 41.5191 0.734626C41.579 0.76338 41.6364 0.796941 41.6907 0.834966C41.1759 1.08129 40.7284 1.44859 40.3864 1.90551C40.0029 2.42531 39.7297 3.01805 39.5837 3.6473C39.4858 4.0373 39.4171 4.43406 39.378 4.83427C39.3399 5.25467 39.3259 5.69012 39.3259 6.12858C39.3466 7.08973 39.429 8.04855 39.5727 8.99913V9.06334C39.673 9.7426 39.7874 10.4068 39.9038 11.0309C39.9025 11.0415 39.9025 11.0523 39.9038 11.063C40.0372 11.7914 40.1707 12.4677 40.261 13.0456C40.278 13.1459 40.2931 13.2463 40.3071 13.3355C40.3711 13.7191 40.4014 14.1076 40.3974 14.4964C40.4301 15.4354 40.5564 16.3688 40.7747 17.2827C40.8499 17.666 40.9372 18.0753 41.0325 18.5018C41.163 19.0827 41.3054 19.7148 41.4589 20.3589C41.5432 20.7131 41.6335 21.0783 41.7258 21.4415C41.7609 21.587 41.7981 21.7315 41.8332 21.88L41.8914 22.1097C42.5095 24.5679 43.1797 27.0151 43.597 28.495C43.8409 29.3659 43.9984 29.8997 43.9984 29.8997C46.3835 26.0422 49.0083 22.3383 51.8576 18.8098C51.9097 18.7516 51.9579 18.6964 52.0061 18.6442C52.3512 18.2429 52.6913 17.8837 53.0164 17.5646C53.5395 16.9805 54.1727 16.5052 54.8796 16.166C54.9891 16.1257 55.0948 16.076 55.1956 16.0175C56.6234 15.2078 58.9281 12.268 61.0843 9.18875C61.296 8.89879 61.5026 8.58676 61.7113 8.28576C62.1899 7.59546 62.6545 6.90116 63.0929 6.23694C63.4301 5.72926 63.7522 5.2336 64.0562 4.76504C65.507 2.50652 66.5294 0.823912 66.5294 0.823912L68.5441 0.733615L68.8953 0.71656H69.13L78.2755 0.293154C78.2755 0.293154 78.6698 0.36039 79.3199 0.493834C79.3572 0.490523 79.3946 0.498547 79.4273 0.516891C82.6721 1.16103 91.6871 3.20183 92.2379 6.03525C92.9111 9.50079 107.452 14.1242 107.452 14.1242C107.643 16.4459 111.204 17.976 111.204 17.976C111.204 17.976 116.597 32.2234 115.154 37.811C113.729 43.3294 118.867 56.9667 119 57.349L118.016 58.5912L93.6637 89.3726Z" fill="#E8F5FF"/>
</svg>
