<svg width="316" height="54" viewBox="0 0 316 54" fill="none" xmlns="http://www.w3.org/2000/svg">
<g filter="url(#filter0_d_3_632)">
<path d="M289 0H27C12.0883 0 0 12.0883 0 27C0 41.9117 12.0883 54 27 54H289C303.912 54 316 41.9117 316 27C316 12.0883 303.912 0 289 0Z" fill="white"/>
<path d="M289 0.25H27C12.2264 0.25 0.25 12.2264 0.25 27C0.25 41.7736 12.2264 53.75 27 53.75H289C303.774 53.75 315.75 41.7736 315.75 27C315.75 12.2264 303.774 0.25 289 0.25Z" stroke="#01D4AA" stroke-width="0.5"/>
</g>
<defs>
<filter id="filter0_d_3_632" x="-6" y="-3" width="328" height="66" filterUnits="userSpaceOnUse" color-interpolation-filters="sRGB">
<feFlood flood-opacity="0" result="BackgroundImageFix"/>
<feColorMatrix in="SourceAlpha" type="matrix" values="0 0 0 0 0 0 0 0 0 0 0 0 0 0 0 0 0 0 127 0" result="hardAlpha"/>
<feOffset dy="3"/>
<feGaussianBlur stdDeviation="3"/>
<feColorMatrix type="matrix" values="0 0 0 0 0 0 0 0 0 0 0 0 0 0 0 0 0 0 0.161 0"/>
<feBlend mode="normal" in2="BackgroundImageFix" result="effect1_dropShadow_3_632"/>
<feBlend mode="normal" in="SourceGraphic" in2="effect1_dropShadow_3_632" result="shape"/>
</filter>
</defs>
</svg>
