<svg width="7" height="10" viewBox="0 0 7 10" fill="none" xmlns="http://www.w3.org/2000/svg">
<path d="M3.5 0C2.57174 0 1.6815 0.368749 1.02513 1.02513C0.368749 1.6815 0 2.57174 0 3.5C0 6.125 3.5 10 3.5 10C3.5 10 7 6.125 7 3.5C7 2.57174 6.63125 1.6815 5.97487 1.02513C5.3185 0.368749 4.42826 0 3.5 0ZM3.5 4.75C3.25277 4.75 3.0111 4.67669 2.80554 4.53934C2.59998 4.40199 2.43976 4.20676 2.34515 3.97835C2.25054 3.74995 2.22579 3.49861 2.27402 3.25614C2.32225 3.01366 2.4413 2.79093 2.61612 2.61612C2.79093 2.4413 3.01366 2.32225 3.25614 2.27402C3.49861 2.22579 3.74995 2.25054 3.97835 2.34515C4.20676 2.43976 4.40199 2.59998 4.53934 2.80554C4.67669 3.0111 4.75 3.25277 4.75 3.5C4.75 3.83152 4.6183 4.14946 4.38388 4.38388C4.14946 4.6183 3.83152 4.75 3.5 4.75Z" fill="black"/>
</svg>
