<svg width="45" height="40" viewBox="0 0 45 40" fill="none" xmlns="http://www.w3.org/2000/svg">
<path d="M33.1265 0.000267585C31.3984 0.00431408 29.6906 0.373061 28.1147 1.0824C26.5389 1.79174 25.1306 2.8257 23.9817 4.11667C23.4388 4.70873 22.9417 5.34132 22.4949 6.00893C22.0481 5.3413 21.551 4.70871 21.008 4.11667C19.8592 2.8257 18.4509 1.79174 16.8751 1.0824C15.2992 0.373061 13.5914 0.00431408 11.8633 0.000267585C10.2353 -0.0109298 8.62394 0.329424 7.13947 0.998079C5.655 1.66673 4.33235 2.64793 3.26188 3.87465C1.11613 6.37786 -0.0431667 9.57764 0.00122947 12.8744C0.00122947 20.8171 6.48576 26.2682 16.1686 34.5235C17.9108 36.0083 22.5 39.9787 22.5 39.9787C22.5 39.9787 27.0851 36.0083 28.8314 34.5235C38.5142 26.2723 44.9988 20.8212 44.9988 12.8744C45.0429 9.57799 43.8836 6.37862 41.7381 3.87567C40.6676 2.64895 39.345 1.66775 37.8605 0.999099C36.3761 0.330445 34.7648 -0.00990922 33.1367 0.00128821L33.1265 0.000267585ZM38.405 22.0712C35.755 25.2225 31.8918 28.4393 27.1117 32.5128C25.633 33.777 24.1012 35.077 22.4949 36.474C20.8875 35.078 19.3619 33.777 17.8781 32.5128C13.0979 28.4393 9.23479 25.2225 6.58482 22.0712C3.85416 18.8248 2.63691 15.988 2.63691 12.8744C2.63691 7.03828 6.6032 2.63697 11.8633 2.63697C13.2134 2.63648 14.5483 2.92167 15.7803 3.47378C17.0123 4.02589 18.1135 4.83244 19.0116 5.84043C19.9407 6.83473 20.7056 7.97054 21.2776 9.20524L22.4867 12.1381L23.7121 9.20524C24.2842 7.97052 25.0491 6.83471 25.9782 5.84043C26.8763 4.83244 27.9775 4.02589 29.2095 3.47378C30.4415 2.92167 31.7764 2.63648 33.1265 2.63697C38.3856 2.63697 42.3529 7.03828 42.3529 12.8744C42.3529 15.988 41.1356 18.8238 38.405 22.0712Z" fill="white"/>
<path d="M28.3431 21.2848L24.9497 11.1057L22.314 21.6494L20.435 16.0125L16.677 19.7704H10.5499V22.4061H17.7738L19.2882 20.8917L22.6816 31.0699L25.3173 20.5261L27.1963 26.163L31.0421 22.4051H34.4406V19.7694H29.8524L28.3431 21.2848Z" fill="white"/>
</svg>
