<svg width="15" height="18" viewBox="0 0 15 18" fill="none" xmlns="http://www.w3.org/2000/svg">
<path d="M0.452422 17.6476L0 17.0236C0.0932955 16.9564 9.20714 10.3635 10.6437 8.23072L10.6899 8.16652L10.757 8.12339C10.7861 8.10332 13.6903 6.22236 14.1679 3.85486C14.2552 3.41274 14.2488 2.9572 14.1489 2.51774C14.049 2.07828 13.8579 1.66471 13.588 1.30379L13.5208 1.20348V1.13426C13.4626 1.05902 13.0363 0.632667 10.8775 0.818254L10.8102 0.0488195C12.4324 -0.090622 13.5028 0.0688821 14.0024 0.524324C14.1262 0.630706 14.2176 0.769745 14.2662 0.925589C14.58 1.36675 14.8001 1.86754 14.9129 2.39705C15.0258 2.92656 15.029 3.47356 14.9223 4.00434C14.5059 5.50619 13.6287 6.83952 12.4143 7.81641C11.6118 8.51864 10.8473 9.267 10.0779 10.0013C6.99999 12.7103 3.78744 15.2623 0.452422 17.6476Z" fill="#E8F5FF"/>
</svg>
