<svg width="63" height="131" viewBox="0 0 63 131" fill="none" xmlns="http://www.w3.org/2000/svg">
<path d="M59.3841 20.4884C59.1516 24.943 59.527 34.9029 54.5923 37.1353C52.1496 38.2353 49.5349 35.8269 46.8567 35.7645C45.8915 35.8113 44.95 36.0799 44.1054 36.5495C43.2608 37.019 42.5357 37.6768 41.9864 38.4718C40.9007 40.0678 39.9763 41.7676 39.2267 43.5464C38.4501 45.116 37.5558 46.6246 36.5515 48.0594C36.0071 48.9502 35.2576 49.6979 34.3655 50.2403C32.7552 51.0787 30.8107 50.6077 29.0876 50.0682C26.852 49.3637 24.6492 48.57 22.4793 47.687C22.529 47.3592 22.5542 47.0281 22.5547 46.6966C22.4903 46.8194 22.4209 46.9321 22.3534 47.0549L22.2166 47.2935C21.969 47.7303 21.7274 48.167 21.506 48.6149C21.4215 48.787 21.3399 48.9642 21.2675 49.1423C20.9747 49.8031 20.7908 50.5071 20.723 51.2267C20.574 53.1681 21.5281 55.011 22.3826 56.7622C25.6516 63.5196 27.6726 71.4213 25.2128 78.5098C24.147 81.5925 22.3011 84.3321 20.9535 87.3112C18.597 92.5863 17.9033 98.454 18.9647 104.133C19.637 107.662 20.9857 111.155 20.6535 114.733C20.0708 120.891 14.7607 125.473 9.44158 128.622C6.56814 130.317 3.05158 131.825 0 130.485C1.94448 128.215 2.44569 125.074 2.86437 122.11C4.01174 114.026 5.16179 105.938 6.31452 97.8458C6.77481 94.6252 7.23376 91.4045 7.69137 88.1838C8.54686 82.134 9.41442 76.0178 8.87898 69.9297C8.48847 65.4429 7.38841 60.6803 9.33288 56.6193C10.3605 54.4675 12.1923 52.6861 12.7629 50.3682C13.2319 48.4841 12.7951 46.4812 13.1031 44.5629C13.272 43.6898 13.5581 42.8434 13.9535 42.0468C14.4568 40.9662 15.1138 39.9641 15.904 39.0717C15.1338 38.9172 14.443 38.4955 13.9535 37.881C14.5291 37.4035 14.928 36.7468 15.0863 36.0159C15.2447 35.285 15.1534 34.5221 14.8272 33.8492C14.1389 32.52 13.2155 31.3265 12.1017 30.3266C10.9845 29.3174 10.234 27.9658 9.96797 26.4839C9.72038 23.6568 12.5445 21.4677 13.0427 18.6788C13.5459 15.8406 11.5551 13.0799 11.7152 10.2065C11.9014 6.73319 15.0929 4.20899 18.2421 2.74459C22.996 0.545183 28.2472 -0.35762 33.4627 0.127794C37.707 0.530377 41.8163 1.83876 46.0485 2.35206C48.6019 2.64292 51.1895 2.67212 53.7257 3.121C56.2985 3.4572 58.6997 4.59618 60.5878 6.37589C65.2879 11.2794 59.6518 15.3172 59.3841 20.4884Z" fill="#FFE0D0"/>
</svg>
