<svg width="10" height="10" viewBox="0 0 10 10" fill="none" xmlns="http://www.w3.org/2000/svg">
<path d="M5 0C4.0111 0 3.0444 0.293245 2.22215 0.842652C1.39991 1.39206 0.759043 2.17295 0.380605 3.08658C0.00216642 4.00021 -0.0968503 5.00555 0.0960759 5.97545C0.289002 6.94536 0.765206 7.83627 1.46447 8.53553C2.16373 9.2348 3.05465 9.711 4.02455 9.90393C4.99446 10.0969 5.99979 9.99784 6.91342 9.6194C7.82705 9.24096 8.60794 8.6001 9.15735 7.77785C9.70676 6.95561 10 5.98891 10 5C10 3.67392 9.47322 2.40215 8.53554 1.46447C7.59785 0.526784 6.32609 0 5 0ZM5 7.25C4.55499 7.25 4.11998 7.11804 3.74997 6.87081C3.37996 6.62357 3.09157 6.27217 2.92127 5.86104C2.75098 5.4499 2.70642 4.9975 2.79324 4.56105C2.88005 4.12459 3.09434 3.72368 3.40901 3.40901C3.72368 3.09434 4.12459 2.88005 4.56105 2.79323C4.99751 2.70642 5.44991 2.75097 5.86104 2.92127C6.27217 3.09157 6.62358 3.37996 6.87081 3.74997C7.11804 4.11998 7.25 4.55499 7.25 5C7.2504 5.29559 7.19247 5.58834 7.07954 5.8615C6.9666 6.13467 6.80088 6.38286 6.59187 6.59187C6.38286 6.80088 6.13467 6.9666 5.86151 7.07953C5.58835 7.19247 5.29559 7.25039 5 7.25ZM5 4.5C4.90111 4.5 4.80444 4.52932 4.72222 4.58427C4.63999 4.63921 4.57591 4.7173 4.53806 4.80866C4.50022 4.90002 4.49032 5.00056 4.50961 5.09755C4.5289 5.19454 4.57652 5.28363 4.64645 5.35355C4.71638 5.42348 4.80547 5.4711 4.90246 5.49039C4.99945 5.50969 5.09998 5.49978 5.19134 5.46194C5.28271 5.4241 5.3608 5.36001 5.41574 5.27779C5.47068 5.19556 5.5 5.09889 5.5 5C5.5 4.86739 5.44732 4.74021 5.35356 4.64645C5.25979 4.55268 5.13261 4.5 5 4.5Z" fill="#00D4AA"/>
</svg>
