<svg width="13" height="9" viewBox="0 0 13 9" fill="none" xmlns="http://www.w3.org/2000/svg">
<path opacity="0.25" d="M7.31479 8.28331C5.07961 7.50967 0 1.22271 0 1.22271C0 1.22271 7.87759 -0.58076 10.1188 0.19288C10.6503 0.376997 11.1404 0.664005 11.561 1.0375C11.9815 1.411 12.3244 1.86366 12.57 2.36967C12.8157 2.87568 12.9592 3.42512 12.9925 3.98661C13.0258 4.5481 12.9481 5.11065 12.764 5.64214C12.5799 6.17363 12.2929 6.66366 11.9194 7.08424C11.5459 7.50481 11.0933 7.8477 10.5873 8.09333C10.0813 8.33896 9.53179 8.48252 8.9703 8.51581C8.40881 8.5491 7.84628 8.47146 7.31479 8.28734V8.28331Z" fill="black"/>
</svg>
