<svg width="48" height="34" viewBox="0 0 48 34" fill="none" xmlns="http://www.w3.org/2000/svg">
<path opacity="0.1" d="M48 24.3989C48.0039 27.6001 47.3752 30.7707 46.1498 33.7282C45.7418 33.7751 45.3338 33.8046 44.934 33.823C44.3445 32.5277 44.6597 31.0325 44.6719 29.6066C44.6842 28.1808 44.162 26.506 42.7871 26.1225C40.0516 25.3525 38.1637 30.4654 35.467 29.5424C33.4017 28.8407 33.9371 25.7074 32.753 23.8981C31.8116 22.4702 29.9268 22.0622 28.4601 21.1657C25.3412 19.2513 25.436 16.1884 23.9877 13.2908C22.4711 10.2545 19.2675 11.1489 16.4852 12.943C14.3729 14.3056 12.5492 16.1323 10.2891 17.2175C8.30015 18.1073 6.14436 18.5628 3.96549 18.5536C2.63038 18.6053 1.2948 18.4641 0 18.1344C1.52279 12.4089 5.0761 7.43269 9.9973 4.13381C14.9185 0.834934 20.8716 -0.561375 26.7463 0.205274C32.6211 0.971924 38.0165 3.84919 41.9263 8.3005C45.8361 12.7518 47.9934 18.4732 47.9959 24.3978L48 24.3989Z" fill="black"/>
</svg>
