<svg width="27" height="27" viewBox="0 0 27 27" fill="none" xmlns="http://www.w3.org/2000/svg">
<g filter="url(#filter0_d_3_2222)">
<path d="M19 3H8C6.89543 3 6 3.89543 6 5V16C6 17.1046 6.89543 18 8 18H19C20.1046 18 21 17.1046 21 16V5C21 3.89543 20.1046 3 19 3Z" fill="white"/>
<path d="M19 3.25H8C7.0335 3.25 6.25 4.0335 6.25 5V16C6.25 16.9665 7.0335 17.75 8 17.75H19C19.9665 17.75 20.75 16.9665 20.75 16V5C20.75 4.0335 19.9665 3.25 19 3.25Z" stroke="#707070" stroke-width="0.5"/>
</g>
<defs>
<filter id="filter0_d_3_2222" x="0" y="0" width="27" height="27" filterUnits="userSpaceOnUse" color-interpolation-filters="sRGB">
<feFlood flood-opacity="0" result="BackgroundImageFix"/>
<feColorMatrix in="SourceAlpha" type="matrix" values="0 0 0 0 0 0 0 0 0 0 0 0 0 0 0 0 0 0 127 0" result="hardAlpha"/>
<feOffset dy="3"/>
<feGaussianBlur stdDeviation="3"/>
<feColorMatrix type="matrix" values="0 0 0 0 0 0 0 0 0 0 0 0 0 0 0 0 0 0 0.161 0"/>
<feBlend mode="normal" in2="BackgroundImageFix" result="effect1_dropShadow_3_2222"/>
<feBlend mode="normal" in="SourceGraphic" in2="effect1_dropShadow_3_2222" result="shape"/>
</filter>
</defs>
</svg>
