<svg width="30" height="24" viewBox="0 0 30 24" fill="none" xmlns="http://www.w3.org/2000/svg">
<path d="M30 23.3086H12.7121C10.2954 21.211 8.00753 19.2686 6.55144 18.1005C4.38814 16.2109 2.65482 13.8798 1.46819 11.2641C1.22651 10.7606 1.01706 10.2883 0.838824 9.86036C0.520693 9.12269 0.24071 8.36914 0 7.6027L12.8018 0C13.5094 0.601569 14.1742 1.25164 14.7916 1.9455L14.9456 2.12373C15.6438 2.83204 16.1267 3.72378 16.3383 4.69552C16.4027 5.6018 18.9302 9.12021 21.5142 12.4966C24.1323 15.9304 26.821 19.2132 26.9992 19.4347C26.9992 19.4347 27.4423 20.0389 28.1643 20.9643C28.6788 21.6299 29.3032 22.4355 30 23.3086Z" fill="#FFCCD0"/>
</svg>
