<svg width="10" height="10" viewBox="0 0 10 10" fill="none" xmlns="http://www.w3.org/2000/svg">
<path d="M8.889 0H1.111C0.817304 0.00132285 0.536102 0.11899 0.328989 0.327228C0.121875 0.535466 0.00573247 0.817301 0.00600004 1.111L0 8.889C0.000791789 9.18341 0.118098 9.46554 0.326279 9.67372C0.534461 9.8819 0.816588 9.99921 1.111 10H8.889C9.18341 9.99921 9.46554 9.8819 9.67372 9.67372C9.8819 9.46554 9.99921 9.18341 10 8.889V1.111C9.99921 0.816588 9.8819 0.534461 9.67372 0.326279C9.46554 0.118098 9.18341 0.000791789 8.889 0ZM8.333 6.111H6.111V8.333H3.889V6.111H1.667V3.889H3.889V1.667H6.111V3.889H8.333V6.111Z" fill="#FF5555"/>
</svg>
