<svg width="15" height="14" viewBox="0 0 15 14" fill="none" xmlns="http://www.w3.org/2000/svg">
<path d="M7.5 13.7628L6.41303 12.7729C2.55013 9.26995 0.000197796 6.96001 0.000197796 4.12509C-0.00514749 3.58191 0.0978959 3.04313 0.303298 2.54026C0.508701 2.03739 0.812336 1.58054 1.19644 1.19644C1.58054 0.812336 2.03739 0.5087 2.54026 0.303298C3.04313 0.0978957 3.58191 -0.00514749 4.12509 0.000197796C4.76701 0.00515532 5.40042 0.147676 5.9826 0.418153C6.56478 0.68863 7.0822 1.08078 7.5 1.56816C7.91779 1.08078 8.43522 0.68863 9.0174 0.418153C9.59958 0.147676 10.233 0.00515532 10.8749 0.000197796C11.4181 -0.00514749 11.9569 0.0978957 12.4597 0.303298C12.9626 0.5087 13.4195 0.812336 13.8036 1.19644C14.1877 1.58054 14.4913 2.03739 14.6967 2.54026C14.9021 3.04313 15.0051 3.58191 14.9998 4.12509C14.9998 6.96001 12.4499 9.26995 8.58697 12.7799L7.5 13.7628Z" fill="#FF5555"/>
</svg>
