<svg width="23" height="20" viewBox="0 0 23 20" fill="none" xmlns="http://www.w3.org/2000/svg">
<path d="M11.5055 4.18375C12.8921 4.18375 14.2218 4.7346 15.2022 5.71512C16.1827 6.69564 16.7335 8.02551 16.7335 9.41218C16.7322 10.0673 16.6042 10.7161 16.3565 11.3226L19.4128 14.3782C21.0067 13.0493 22.2403 11.3404 23 9.40916C22.0914 7.09766 20.508 5.1133 18.4558 3.71447C16.4037 2.31565 13.9779 1.56718 11.4945 1.56652C10.0747 1.56597 8.66569 1.8137 7.3312 2.2985L9.59129 4.5608C10.199 4.31251 10.8491 4.18446 11.5055 4.18375ZM1.04559 1.32822L3.43034 3.71319L3.91192 4.19481C2.1637 5.55245 0.812574 7.35515 0 9.41419C0.595628 10.9304 1.4849 12.314 2.61675 13.4854C3.74859 14.6569 5.1007 15.5932 6.59543 16.2406C8.09015 16.888 9.69802 17.2336 11.3267 17.2577C12.9554 17.2818 14.5728 16.9839 16.086 16.3811L16.5254 16.8205L19.5898 19.8751L20.9179 18.5468L2.3747 0L1.04559 1.32822ZM6.82952 7.11268L8.45119 8.73449C8.3971 8.95705 8.36909 9.18515 8.36775 9.41419C8.36722 9.82644 8.44802 10.2347 8.60552 10.6157C8.76302 10.9967 8.99413 11.3428 9.2856 11.6343C9.57708 11.9258 9.92319 12.1569 10.3041 12.3145C10.6851 12.472 11.0933 12.5528 11.5055 12.5523C11.7345 12.5509 11.9626 12.5229 12.1852 12.4688L13.8068 14.0906C12.8307 14.5816 11.7247 14.7523 10.6461 14.5785C9.56738 14.4048 8.57092 13.8954 7.79834 13.1227C7.02577 12.3501 6.5164 11.3535 6.34265 10.2747C6.1689 9.19596 6.33962 8.08986 6.83053 7.11368L6.82952 7.11268ZM11.3376 6.29724L14.6322 9.59216L14.6534 9.42525C14.6539 9.013 14.5731 8.60471 14.4156 8.22374C14.2581 7.84277 14.027 7.49663 13.7355 7.20512C13.444 6.91362 13.0979 6.68249 12.717 6.52498C12.336 6.36747 11.9278 6.28666 11.5156 6.28719L11.3376 6.29724Z" fill="#747474"/>
</svg>
