<svg width="35" height="21" viewBox="0 0 35 21" fill="none" xmlns="http://www.w3.org/2000/svg">
<path d="M30.8821 0C32.1489 0.72431 33.1988 1.77445 33.9228 3.04144C34.6468 4.30844 35.0184 5.74615 34.9993 7.20528C34.9993 12.3515 34.4847 12.867 34.4847 12.867L26.7619 14.9261C26.7619 14.9261 21.6157 14.4115 18.5276 17.4996C15.4395 20.5877 0 22.6458 0 18.5287C0 14.4115 12.866 7.72078 12.866 7.72078C12.866 7.72078 16.6873 1.26776 19.4083 1.92169C22.1293 2.57562 23.1593 3.60363 23.1593 4.11915C22.7305 5.52214 22.215 6.89721 21.6158 8.23634C21.6158 8.23634 30.3666 6.17622 30.8821 0Z" fill="#2F2E41"/>
</svg>
